PathFileType	4	(X/Y/Z)	SUBJ32_4_walk_RCNL2025.trc
DataRate	CameraRate	NumFrames	NumMarkers	Units	OrigDataRate	OrigDataStartFrame	OrigNumFrames
100	100	7	25	mm	100	35	273
Frame#	Time	R_Shoulder			L_Shoulder			C7			J_Notch			R_Elbow			L_Elbow			R_Wrist			L_Wrist			R_Asis			L_Asis			Sacral			Thoracic			Sternum			R_Thigh_Lateral			R_Knee_Lateral			R_Shank_Lateral			R_Ankle_Lateral			R_Heel			R_Toe			L_Thigh_Lateral			L_Knee_Lateral			L_Shank_Lateral			L_Ankle_Lateral			L_Heel			L_Toe		
		X1	Y1	Z1	X2	Y2	Z2	X3	Y3	Z3	X4	Y4	Z4	X5	Y5	Z5	X6	Y6	Z6	X7	Y7	Z7	X8	Y8	Z8	X9	Y9	Z9	X10	Y10	Z10	X11	Y11	Z11	X12	Y12	Z12	X13	Y13	Z13	X14	Y14	Z14	X15	Y15	Z15	X16	Y16	Z16	X17	Y17	Z17	X18	Y18	Z18	X19	Y19	Z19	X20	Y20	Z20	X21	Y21	Z21	X22	Y22	Z22	X23	Y23	Z23	X24	Y24	Z24	X25	Y25	Z25
35	0.34000000	-1200.765137	1336.610229	376.848145	-1201.029663	1359.903687	8.724535	-1228.093872	1425.993164	209.625809	-1103.981812	1323.799438	195.560364	-1270.364868	999.975403	457.728424	-1250.029175	1046.151123	-106.826065	-1212.323059	757.988068	477.713867	-1137.765137	812.451111	-125.890186	-1114.759155	893.997925	290.541718	-1129.963257	880.277100	36.765411	-1323.298462	933.347778	176.648819	-1327.005859	1191.559204	184.953232	-1036.066895	1099.467651	178.617264	-1144.917969	534.517029	363.013184	-1123.113159	441.482208	319.518738	-1117.360596	279.863678	383.051819	-1120.968750	60.815918	266.622620	-1172.947144	51.580051	214.307999	-988.826111	44.831276	233.744186	-1213.000610	542.274170	-73.297356	-1223.610962	449.483582	-35.014050	-1377.745972	297.189667	-60.406319	-1533.007690	193.494034	30.009455	-1562.049316	233.978424	75.943626	-1496.448975	64.212196	63.100788
36	0.35000000	-1189.019165	1338.424194	377.866486	-1190.485718	1361.369873	9.661165	-1217.008911	1427.718994	210.703262	-1093.148438	1325.389648	196.402664	-1256.002319	1001.416077	459.311523	-1242.306030	1047.320312	-104.466202	-1196.232239	759.782532	478.336945	-1135.159241	811.053558	-123.864594	-1104.824219	895.379089	291.870026	-1119.587891	881.845886	38.496735	-1312.839111	935.146667	177.237610	-1316.208862	1193.353516	186.427063	-1025.388062	1100.948120	179.825287	-1140.331055	535.058350	363.750732	-1119.941162	441.603088	320.056641	-1116.150879	279.828125	383.244873	-1120.882690	60.822521	266.593109	-1172.987427	51.800114	214.298843	-988.869812	44.747360	233.778595	-1194.218750	543.660950	-72.423592	-1202.000000	451.004089	-34.387432	-1355.708984	299.355347	-59.289722	-1512.202759	197.669022	31.334198	-1541.752075	237.599289	77.621017	-1474.403809	68.717522	63.252762
37	0.36000000	-1177.454102	1340.232056	378.791901	-1180.125732	1362.696289	10.485225	-1206.011230	1429.388916	211.652252	-1082.457397	1326.910156	197.151276	-1241.657349	1002.888306	460.972351	-1234.687988	1048.404419	-102.246964	-1179.903992	761.670349	478.961426	-1132.572754	809.747650	-121.837402	-1095.129150	896.752869	293.198029	-1109.492432	883.313965	40.334637	-1302.515015	936.911438	177.630020	-1305.543091	1195.116333	187.822678	-1014.806763	1102.387939	180.996567	-1136.094482	535.596069	364.356964	-1117.078491	441.716705	320.485229	-1115.138794	279.825043	383.345001	-1120.769531	60.826893	266.512573	-1173.006470	51.977306	214.237732	-988.914001	44.660355	233.817413	-1175.583496	545.348267	-71.484573	-1180.428345	452.869171	-33.661034	-1333.420166	301.431641	-57.923237	-1490.490356	200.629257	32.779415	-1521.041016	239.736679	79.354416	-1449.638184	72.835861	63.761482
38	0.37000000	-1166.064331	1342.022461	379.629547	-1169.932129	1363.880005	11.206509	-1195.097900	1430.984985	212.470840	-1071.910034	1328.336426	197.808563	-1227.349731	1004.382446	462.693085	-1227.161377	1049.404297	-100.149284	-1163.352112	763.659637	479.595749	-1129.980957	808.533264	-119.808605	-1085.686890	898.097473	294.522919	-1099.545898	884.708862	42.249092	-1292.308838	938.616516	177.863113	-1294.995605	1196.823853	189.129440	-1004.322998	1103.771606	182.129883	-1132.155640	536.101440	364.804321	-1114.450806	441.824005	320.781281	-1114.304443	279.846436	383.347473	-1120.627197	60.842731	266.368774	-1172.991333	52.116859	214.093674	-988.956238	44.586533	233.863235	-1157.020142	547.299133	-70.504868	-1158.928955	455.026093	-32.850876	-1310.911865	303.379547	-56.373257	-1467.907593	202.314774	34.327637	-1499.847900	240.375610	81.129105	-1422.502319	76.416710	64.624504
39	0.38000000	-1154.832764	1343.780396	380.384949	-1159.885132	1364.917236	11.836747	-1184.266968	1432.487915	213.163712	-1061.494507	1329.648438	198.379639	-1213.103760	1005.885925	464.455261	-1219.718140	1050.318726	-98.153290	-1146.594299	765.754974	480.243225	-1127.360840	807.405334	-117.778183	-1076.508789	899.377075	295.823364	-1089.573120	886.078918	44.174095	-1282.201782	940.233704	177.971161	-1284.553101	1198.451538	190.343674	-993.938110	1105.082031	183.228653	-1128.408081	536.563843	365.101471	-1111.958740	441.932678	320.943024	-1113.575562	279.888275	383.257080	-1120.460083	60.881668	266.160583	-1172.939941	52.234615	213.859543	-988.993958	44.538769	233.919403	-1138.497803	549.468750	-69.497864	-1137.560303	457.414307	-31.959263	-1288.184204	305.101166	-54.706707	-1444.505127	202.716492	35.973797	-1478.094971	239.530792	82.960434	-1393.417603	79.356094	65.780319
40	0.39000000	-1143.734985	1345.487671	381.062531	-1149.961792	1365.803589	12.388730	-1173.516602	1433.878662	213.742233	-1051.186157	1330.833008	198.871170	-1198.944702	1007.383667	466.242310	-1212.355713	1051.144653	-96.240425	-1129.653015	767.955658	480.903137	-1124.689209	806.355682	-115.746677	-1067.576904	900.553467	297.078400	-1079.407227	887.473389	46.032955	-1272.175049	941.734558	177.980606	-1274.203247	1199.974243	191.466751	-983.651184	1106.302368	184.302490	-1124.727173	536.984192	365.282654	-1109.504639	442.049408	320.987518	-1112.841797	279.952118	383.088409	-1120.273926	60.948006	265.894287	-1172.854004	52.346767	213.545258	-989.023254	44.521496	233.982849	-1120.033813	551.803101	-68.465729	-1116.393433	459.968445	-30.980289	-1265.228027	306.464722	-52.978050	-1420.336914	201.866379	37.719128	-1455.706421	237.242340	84.880013	-1362.839355	81.587891	67.135963
41	0.40000000	-1132.744995	1347.123047	381.664886	-1140.132690	1366.533325	12.875595	-1162.844604	1435.138184	214.221985	-1040.951660	1331.882690	199.290421	-1184.894775	1008.858337	468.039978	-1205.074707	1051.876709	-94.394585	-1112.554565	770.255493	481.571594	-1121.942871	805.374451	-113.715855	-1058.831055	901.597168	298.284485	-1068.940552	888.918884	47.760521	-1262.211548	943.093567	177.909760	-1263.935059	1201.368408	192.501892	-973.456299	1107.415894	185.366135	-1121.004150	537.368652	365.391602	-1107.011597	442.175690	320.944214	-1111.991333	280.040619	382.863251	-1120.074829	61.036430	265.580444	-1172.737427	52.465931	213.173111	-989.040161	44.529518	234.043335	-1101.681519	554.239197	-67.403580	-1095.497803	462.622040	-29.906549	-1242.038940	307.338470	-51.224064	-1395.449219	199.824188	39.564125	-1432.613525	233.569977	86.921112	-1331.215942	83.074020	68.591919
